<svg width="210" height="37" viewBox="0 0 210 37" fill="none" xmlns="http://www.w3.org/2000/svg">
<path d="M0.376 28V1.18H5.776L15.82 14.5H13.3L23.056 1.18H28.456V28H22.876V7.336L25.108 7.84L14.776 21.16H14.056L4.084 7.84L5.956 7.336V28H0.376ZM31.2319 28L40.3039 1.18H47.7199L56.7919 28H50.7079L48.9079 22.528H39.0799L37.2799 28H31.2319ZM40.6279 17.668H47.3599L43.2559 4.996H44.7679L40.6279 17.668ZM68.9836 28.432C67.3036 28.432 65.7196 28.132 64.2316 27.532C62.7676 26.908 61.4956 26.032 60.4156 24.904C59.3596 23.776 58.5676 22.444 58.0396 20.908L62.6116 18.856C63.2836 20.32 64.2076 21.472 65.3836 22.312C66.5836 23.152 67.9036 23.572 69.3436 23.572C70.1116 23.572 70.7716 23.452 71.3236 23.212C71.8756 22.972 72.3076 22.648 72.6196 22.24C72.9316 21.808 73.0876 21.304 73.0876 20.728C73.0876 20.104 72.8956 19.576 72.5116 19.144C72.1276 18.688 71.5276 18.328 70.7116 18.064L65.4556 16.336C63.3196 15.64 61.7116 14.656 60.6316 13.384C59.5516 12.088 59.0116 10.54 59.0116 8.74C59.0116 7.156 59.3956 5.764 60.1636 4.564C60.9556 3.364 62.0476 2.428 63.4396 1.756C64.8556 1.084 66.4756 0.747999 68.2996 0.747999C69.9076 0.747999 71.3956 1.024 72.7636 1.576C74.1316 2.128 75.3076 2.908 76.2916 3.916C77.2996 4.924 78.0556 6.136 78.5596 7.552L74.0236 9.604C73.5196 8.356 72.7636 7.384 71.7556 6.688C70.7476 5.968 69.5956 5.608 68.2996 5.608C67.5556 5.608 66.8956 5.728 66.3196 5.968C65.7436 6.208 65.2996 6.556 64.9876 7.012C64.6756 7.444 64.5196 7.948 64.5196 8.524C64.5196 9.148 64.7236 9.7 65.1316 10.18C65.5396 10.636 66.1516 10.996 66.9676 11.26L72.1156 12.916C74.2756 13.612 75.8836 14.584 76.9396 15.832C78.0196 17.08 78.5596 18.604 78.5596 20.404C78.5596 21.964 78.1516 23.356 77.3356 24.58C76.5196 25.78 75.3916 26.728 73.9516 27.424C72.5356 28.096 70.8796 28.432 68.9836 28.432ZM69.3436 36.64C68.7196 36.64 67.9996 36.544 67.1836 36.352C66.3916 36.16 65.7076 35.872 65.1316 35.488L66.2476 32.5C66.6076 32.716 66.9916 32.884 67.3996 33.004C67.8316 33.124 68.2396 33.184 68.6236 33.184C69.1516 33.184 69.5476 33.076 69.8116 32.86C70.0996 32.668 70.2436 32.392 70.2436 32.032C70.2436 31.6 69.9556 31.252 69.3796 30.988C68.8036 30.724 67.9756 30.544 66.8956 30.448L67.6156 27.64H70.6756L70.3876 29.008C71.6596 29.128 72.6676 29.5 73.4116 30.124C74.1556 30.748 74.5276 31.528 74.5276 32.464C74.5276 33.736 74.0596 34.744 73.1236 35.488C72.1876 36.256 70.9276 36.64 69.3436 36.64ZM82.5362 28V1.18H88.1162V28H82.5362ZM92.8721 28V1.18H97.1561L111.556 20.152L109.252 20.692V1.18H114.832V28H110.512L96.3641 8.884L98.4521 8.344V28H92.8721ZM124.415 28V6.04H117.611V1.18H136.691V6.04H129.995V28H124.415ZM135.681 28L144.753 1.18H152.169L161.241 28H155.157L153.357 22.528H143.529L141.729 28H135.681ZM145.077 17.668H151.809L147.705 4.996H149.217L145.077 17.668ZM164.028 28V1.18H174.324C176.172 1.18 177.804 1.504 179.22 2.152C180.66 2.8 181.788 3.76 182.604 5.032C183.42 6.304 183.828 7.876 183.828 9.748C183.828 11.572 183.408 13.12 182.568 14.392C181.752 15.664 180.624 16.636 179.184 17.308C177.768 17.956 176.148 18.28 174.324 18.28H169.608V28H164.028ZM169.608 13.42H174.36C175.152 13.42 175.836 13.264 176.412 12.952C176.988 12.64 177.432 12.208 177.744 11.656C178.08 11.104 178.248 10.468 178.248 9.748C178.248 9.004 178.08 8.356 177.744 7.804C177.432 7.252 176.988 6.82 176.412 6.508C175.836 6.196 175.152 6.04 174.36 6.04H169.608V13.42ZM191.654 28L195.182 17.57H198.066L201.594 28H199.228L198.528 25.872H194.706L194.006 28H191.654ZM195.308 23.982H197.926L196.33 19.054H196.918L195.308 23.982ZM201.908 28V26.25L206.654 19.46H202.188V17.57H209.398V19.32L204.666 26.11H209.538V28H201.908Z" fill="#528C8C"/>
</svg>
